<?xml version="1.0" encoding="iso-8859-1"?>
<!-- Uploaded to: SVG Repo, www.svgrepo.com, Generator: SVG Repo Mixer Tools -->
<svg height="800px" width="800px" version="1.1" id="Layer_1" xmlns="http://www.w3.org/2000/svg" xmlns:xlink="http://www.w3.org/1999/xlink" 
	 viewBox="0 0 511.982 511.982" xml:space="preserve">
<path style="fill:#D770AD;" d="M170.65,396.658v104.669c0,5.89,4.781,10.655,10.672,10.655c5.89,0,10.671-4.766,10.671-10.655
	V396.658H170.65z"/>
<polygon style="fill:#4A89DC;" points="370.846,92.231 355.769,77.137 428.829,4.078 443.906,19.155 "/>
<g>
	<path style="fill:#EC87C0;" d="M181.322,170.666c-64.795,0-117.324,52.529-117.324,117.324c0,64.81,52.529,117.339,117.324,117.339
		c64.794,0,117.324-52.529,117.324-117.339C298.646,223.195,246.116,170.666,181.322,170.666z M249.21,355.878
		c-18.14,18.125-42.249,28.109-67.888,28.109c-25.64,0-49.749-9.984-67.873-28.109c-18.14-18.14-28.124-42.232-28.124-67.888
		c0-25.64,9.984-49.748,28.124-67.873c18.125-18.124,42.233-28.124,67.873-28.124s49.748,10,67.888,28.124
		c18.125,18.125,28.108,42.233,28.108,67.873C277.318,313.645,267.335,337.738,249.21,355.878z"/>
	<path style="fill:#EC87C0;" d="M213.305,479.983h-63.966c-5.891,0-10.656-4.766-10.656-10.656s4.766-10.671,10.656-10.671h63.966
		c5.891,0,10.672,4.78,10.672,10.671S219.196,479.983,213.305,479.983z"/>
</g>
<g>
	<path style="fill:#5D9CEC;" d="M447.984,10.671c0-5.89-4.781-10.655-10.671-10.655V0h-42.327v0.031
		C394.877,0.015,394.767,0,394.642,0c-5.891,0.016-10.655,4.781-10.655,10.671c0,5.891,4.765,10.672,10.655,10.672
		c0.125,0,0.234-0.016,0.344-0.016v0.016h31.656v31.655h0.016c0,0.125-0.016,0.234-0.016,0.344c0,5.891,4.78,10.656,10.671,10.656
		c5.89,0,10.671-4.766,10.671-10.656c0-0.109-0.016-0.219-0.016-0.344h0.016V10.671z"/>
	<path style="fill:#5D9CEC;" d="M369.441,78.559c-22.922-22.921-52.937-34.374-82.967-34.374s-60.061,11.453-82.966,34.374
		c-45.827,45.811-45.827,120.105,0,165.916c20.453,20.469,46.592,31.78,73.341,33.968c-0.734-7.562-2.375-14.937-4.812-21.999
		c-20.17-3.031-38.764-12.359-53.451-27.046c-18.125-18.125-28.108-42.233-28.108-67.873c0-25.655,9.984-49.748,28.108-67.888
		c18.14-18.125,42.249-28.109,67.888-28.109c25.641,0,49.748,9.984,67.873,28.109c18.14,18.14,28.124,42.232,28.124,67.888
		c0,25.64-9.984,49.748-28.124,67.873c-16.203,16.218-37.202,25.905-59.795,27.78c1.844,6.797,3.109,13.843,3.703,21.077
		c25.983-2.609,51.264-13.858,71.186-33.78C415.252,198.665,415.252,124.37,369.441,78.559z"/>
</g>
</svg>