<?xml version="1.0" encoding="iso-8859-1"?>
<!-- Uploaded to: SVG Repo, www.svgrepo.com, Generator: SVG Repo Mixer Tools -->
<svg version="1.1" id="Capa_1" xmlns="http://www.w3.org/2000/svg" xmlns:xlink="http://www.w3.org/1999/xlink" 
	 viewBox="0 0 350.91 350.91" xml:space="preserve">
<g>
	<g id="XMLID_6_">
		<g>
			<path style="fill:#E2C744;" d="M185.975,232.75c1.05,3.78-0.03,7.85-2.8,10.63c-2.06,2.06-4.81,3.2-7.72,3.2
				c-2.92,0-5.66-1.14-7.72-3.2c-2.08-2.08-3.2-4.88-3.2-7.74c0-0.96,0.13-1.94,0.39-2.89l10.53-38.14L185.975,232.75z"/>
			<path d="M348.355,342.13c0.3,2.15-0.35,4.32-1.78,5.95c-1.42,1.64-3.48,2.58-5.65,2.58H9.975c-2.16,0-4.23-0.94-5.65-2.58
				c-1.43-1.63-2.07-3.8-1.77-5.95L36.115,99.9c2.53-18.28,18.36-32.07,36.82-32.07h72.84V52.78H38.125
				c-17.77,0-32.23-14.47-32.23-32.24V7.75c0-4.15,3.35-7.5,7.5-7.5h324.12c4.14,0,7.5,3.35,7.5,7.5v12.79
				c0,17.77-14.46,32.24-32.24,32.24h-107.65v15.05h72.85c18.46,0,34.28,13.79,36.82,32.07L348.355,342.13z M332.315,335.66
				l-32.38-233.7c-1.51-10.91-10.95-19.13-21.96-19.13H72.935c-11.01,0-20.45,8.22-21.96,19.13l-32.38,233.7H332.315z
				 M330.015,20.54v-5.29H20.895v5.29c0,9.5,7.73,17.24,17.23,17.24h274.65C322.275,37.78,330.015,30.04,330.015,20.54z
				 M190.125,67.83V52.78h-29.35v15.05H190.125z"/>
			<path style="fill:#4785DD;" d="M330.015,15.25v5.29c0,9.5-7.74,17.24-17.24,17.24H38.125c-9.5,0-17.23-7.74-17.23-17.24v-5.29
				H330.015z"/>
			<path d="M175.455,96.83c61.98,0,112.41,50.43,112.41,112.41c0,61.99-50.43,112.42-112.41,112.42
				c-61.99,0-112.42-50.43-112.42-112.42C63.035,147.26,113.465,96.83,175.455,96.83z M272.865,209.24
				c0-53.71-43.7-97.41-97.41-97.41c-53.72,0-97.42,43.7-97.42,97.41c0,53.72,43.7,97.42,97.42,97.42
				C229.165,306.66,272.865,262.96,272.865,209.24z"/>
			<path style="fill:#E55A42;" d="M175.455,111.83c53.71,0,97.41,43.7,97.41,97.41c0,53.72-43.7,97.42-97.41,97.42
				c-53.72,0-97.42-43.7-97.42-97.42C78.035,155.53,121.735,111.83,175.455,111.83z M256.745,209.24
				c0-44.82-36.47-81.29-81.29-81.29c-44.83,0-81.3,36.47-81.3,81.29c0,44.83,36.47,81.3,81.3,81.3
				C220.275,290.54,256.745,254.07,256.745,209.24z"/>
			<path d="M175.455,127.95c44.82,0,81.29,36.47,81.29,81.29c0,44.83-36.47,81.3-81.29,81.3c-44.83,0-81.3-36.47-81.3-81.3
				C94.155,164.42,130.625,127.95,175.455,127.95z M241.745,209.24c0-36.55-29.74-66.29-66.29-66.29c-36.56,0-66.3,29.74-66.3,66.29
				c0,36.56,29.74,66.3,66.3,66.3C212.005,275.54,241.745,245.8,241.745,209.24z"/>
			<path d="M200.435,228.76c2.48,8.98-0.07,18.64-6.66,25.22c-4.89,4.9-11.4,7.6-18.32,7.6c-3.46,0-6.82-0.68-9.93-1.96
				c-3.11-1.29-5.95-3.19-8.4-5.64c-6.58-6.58-9.13-16.24-6.66-25.22l17.76-64.34c0.89-3.25,3.85-5.51,7.23-5.51
				c3.37,0,6.33,2.26,7.23,5.51L200.435,228.76z M183.175,243.38c2.77-2.78,3.85-6.85,2.8-10.63l-10.52-38.14l-10.53,38.14
				c-0.26,0.95-0.39,1.93-0.39,2.89c0,2.86,1.12,5.66,3.2,7.74c2.06,2.06,4.8,3.2,7.72,3.2
				C178.365,246.58,181.115,245.44,183.175,243.38z"/>
			<rect x="160.775" y="52.78" style="fill:#4785DD;" width="29.35" height="15.05"/>
		</g>
		<g>
		</g>
	</g>
</g>
</svg>